<?xml version="1.0" encoding="utf-8"?>
<!-- Generator: Adobe Illustrator 16.0.0, SVG Export Plug-In . SVG Version: 6.00 Build 0)  -->
<!DOCTYPE svg PUBLIC "-//W3C//DTD SVG 1.1//EN" "http://www.w3.org/Graphics/SVG/1.1/DTD/svg11.dtd">
<svg version="1.1" id="Layer_1" xmlns="http://www.w3.org/2000/svg" xmlns:xlink="http://www.w3.org/1999/xlink" x="0px" y="0px"
	 width="3362px" height="1511.185px" viewBox="0 4.44 3362 1511.185" enable-background="new 0 4.44 3362 1511.185"
	 xml:space="preserve">
<g>
	<g>
		<g>
			<g>
				<path fill="#5F6060" d="M0.818,1068.955h147.617c35.735,0,69.708,4.005,101.877,11.977c32.169,7.999,60.25,20.924,84.22,38.797
					c23.977,17.883,42.995,41.113,57.095,69.719c14.092,28.603,21.13,63.299,21.13,104.09c0,36.176-6.841,68.043-20.504,95.581
					c-13.669,27.545-32.075,50.681-55.2,69.389c-23.137,18.72-49.838,32.913-80.12,42.586
					c-30.281,9.677-62.039,14.509-95.258,14.509H0.818V1068.955z M99.229,1424.749h51.1c22.714,0,43.846-2.309,63.406-6.94
					c19.554-4.625,36.475-12.307,50.779-23.023c14.298-10.74,25.55-24.818,33.748-42.28c8.198-17.436,12.309-38.786,12.309-64.029
					c0-21.86-4.108-40.897-12.309-57.093c-8.199-16.186-19.248-29.535-33.12-40.06c-13.878-10.505-30.181-18.395-48.896-23.653
					c-18.725-5.254-38.383-7.892-58.979-7.892H99.228L99.229,1424.749L99.229,1424.749L99.229,1424.749z"/>
				<path fill="#5F6060" d="M626.62,1068.955h81.383L902.301,1515.6h-111.03l-38.483-94.625H579.304l-37.219,94.625H433.576
					L626.62,1068.955z M664.467,1198.899l-54.255,138.796h109.135L664.467,1198.899z"/>
				<path fill="#5F6060" d="M975.482,1155.998H848.055v-87.045h353.271v87.045h-127.43V1515.6h-98.414V1155.998L975.482,1155.998z"
					/>
				<path fill="#5F6060" d="M1340.102,1068.955h81.391l194.29,446.645h-111.025l-38.471-94.625h-173.493l-37.222,94.625h-108.513
					L1340.102,1068.955z M1377.968,1198.899l-54.254,138.796h109.139L1377.968,1198.899z"/>
				<path fill="#5F6060" d="M1671.941,1068.955h62.457l162.759,374.716l162.769-374.716h59.294V1515.6h-41.632v-393.652h-1.254
					l-170.334,393.651h-18.289l-172.853-393.649h-1.263v393.649h-41.632v-446.645L1671.941,1068.955L1671.941,1068.955z"/>
				<path fill="#5F6060" d="M2208.159,1292.277c0-34.073,5.671-65.396,17.027-93.998c11.359-28.593,27.127-53.32,47.318-74.129
					c20.187-20.822,44.473-37.122,72.867-48.889c28.386-11.777,59.619-17.673,93.677-17.673c34.072,0,65.288,5.896,93.688,17.673
					c28.386,11.767,52.678,28.065,72.859,48.889c20.182,20.809,35.968,45.535,47.317,74.129
					c11.354,28.604,17.035,59.925,17.035,93.998c0,34.061-5.681,65.511-17.035,94.313c-11.351,28.804-27.123,53.62-47.317,74.443
					c-20.194,20.811-44.482,37.001-72.859,48.567c-28.399,11.567-59.615,17.345-93.688,17.345c-34.058,0-65.291-5.786-93.677-17.345
					c-28.4-11.568-52.681-27.758-72.867-48.567c-20.191-20.823-35.954-45.63-47.318-74.443
					C2213.829,1357.78,2208.159,1326.329,2208.159,1292.277z M2249.801,1292.277c0,27.742,4.423,53.619,13.241,77.597
					c8.836,23.972,21.453,44.782,37.854,62.446c16.398,17.674,36.273,31.553,59.619,41.636
					c23.347,10.084,49.517,15.133,78.533,15.133c29.021,0,55.202-5.041,78.548-15.133c23.333-10.093,43.204-23.971,59.604-41.636
					c16.401-17.669,29.032-38.476,37.853-62.446c8.832-23.976,13.256-49.854,13.256-77.597c0-27.758-4.424-53.619-13.256-77.599
					c-8.82-23.971-21.45-44.792-37.853-62.448c-16.396-17.674-36.263-31.559-59.604-41.645
					c-23.352-10.081-49.525-15.143-78.548-15.143c-29.021,0-55.203,5.052-78.533,15.143c-23.336,10.104-43.217,23.979-59.619,41.645
					c-16.403,17.663-29.02,38.479-37.854,62.448C2254.219,1238.656,2249.801,1264.511,2249.801,1292.277z"/>
				<path fill="#5F6060" d="M2763.307,1068.955h41.638v408.794h208.179v37.851h-249.821v-446.645H2763.307L2763.307,1068.955z"/>
				<path fill="#5F6060" d="M3078.734,1068.955h273.17v37.848h-231.535v158.967h217.025v37.855h-217.025v174.122H3362v37.851
					h-283.257v-446.645L3078.734,1068.955L3078.734,1068.955z"/>
			</g>
			<g>
				<path fill="#5F6060" d="M1064.426,755.931c39.952-66.148,68.931-64.363,127.321-87.354
					c82.375-32.471,151.03-48.688,247.12-93.622c112.354-52.539,227.176,0,182.224,134.821
					c-44.915,134.768-163.488,194.679-163.488,194.679s44.945-97.341,18.729-108.597c-26.218-11.214-93.584,115.666-209.688,111.911
					c-87.048-2.804-16.646-2.057,29.559-65.747c17.143-23.646,36.157-49.077,33.696-64.056
					c-16.246-29.966-65.757,50.327-159.369,96.521c-26.198,11.241,3.326-86.093,40.79-112.339
					c26.204-16.231-68.245-18.702-116.921-3.748c-48.681,15.003,86.123-4.958,74.888,15.003
					c-11.235,19.959-56.174,73.621-18.714,123.544c18.714,11.216,122.293-63.67,153.527-103.57c0,0-48.69,66.146-104.839,103.57
					c-56.187,37.455,164.731,79.879,267.078-78.61c0,0-8.748,59.9-31.21,104.852c-22.463,44.938,190.99-63.662,229.66-234.671
					c23.15-102.298-57.337-235.309-285.828-121.084C1129.338,692.261,1096.874,637.36,1064.426,755.931z"/>
				<path fill="#5F6060" d="M1910.103,855.657c0,0,81.975-194.636,263.649-178.564c177.904,16.625,183.245,157.661-20.905,199.472
					c0,0,53.996-65.673,45.956-79.057c-8.022-13.385-42.768,15.303-190.661,75.856c-38.593,12.334,34.045-38.472,38.87-79.752
					c4.816-41.25-104.798,34.725-119.271,55.636c-14.452,20.882,5.894-6.957,90.043-49.855c24.657,4.304-78.786,91.645-25.72,90.052
					c62.146-7.489,145.758-58.946,181.696-72.357c28.384-16.062-46.644,73.95-46.644,73.95s217.021-20.914,200.97-139.872
					C2312.004,632.184,1995.282,572.702,1910.103,855.657z"/>
				<path fill="#9BCB3F" d="M748.182,402.766c0,0,115.838-19.975,319.536-281.563c203.682-261.607,485.827-3.987,537.754,25.955
					c51.901,29.945,403.262,108.33,462.499,302.479c56.059,183.816-100.112,329.601-415.12,324.574
					c0,0,219.051-53.318,288.146-135.313c70.606-83.812,79.903-161.552-41.925-265.4
					c-123.672-105.453-253.899-122.374-358.078-184.694c-77.512-46.366-265.594-211.695-451.323-13.979
					C903.947,372.512,834.07,384.791,748.182,402.766z"/>
				<path fill="#9BCB3F" d="M838.558,436.216c0,0,149.471-145.529,302.527-267.468c152.108-121.202,259.138-16.86,349.971,35.938
					c62.303,36.224,306.113,109.567,373.082,205.04c67.705,96.443,49.592,269.563-173.16,280.685
					c0,0,188.092-74.943,122.838-229.018c0,0-29.137-79.104-211.276-135.196c-164.007-50.512-174.854-72.615-223.313-99.491
					c-45.924-25.468-163.746-50.093-302.533,62.739C911.361,423.87,838.558,436.216,838.558,436.216z"/>
				<path fill="#5F6060" d="M771.169,511.62c0,0,82.091-6.901,218.663-123.831c173.733-148.79,321.16-187.192,376.935-94.274
					c57.068,82.708-70.662,181.795-138.799,113.653c-49.562-49.556,3.686-116.669,51.33-122.196
					c42.939-4.992,57.688,54.399,50.197,57.389c-7.488,3.006-14.649-42.546-50.474-33.251c-19.42,5.042-28.028,26.642-20.297,42.707
					c10.579,22.002,36.449,24.866,50.978,12.42c39.943-34.255-29.986-149.636-234.5,5.076
					C1026.186,406.407,862.54,546.051,771.169,511.62z"/>
				<path fill="#9BCB3F" d="M905.789,540.532c0,0,157.131,61.938,293.188,5.519c154.891-64.195,270.963-158.337,429.753-95.395
					c104.437,41.374,62.979,175.648,62.979,175.648s-11.576-213.48-325.966-87.223
					C1244.713,587.676,1056.359,698.953,905.789,540.532z"/>
				<path fill="#9BCB3F" d="M1652.793,151.049c-0.878-0.921,145.433-15.261,160.409-16.775
					c14.956-1.499,167.21,10.644,275.734,86.778c195.666,137.341,127.203,393.334-2.129,422.415
					C2086.816,643.467,2325.198,230.625,1652.793,151.049z"/>
				<path fill="#9BCB3F" d="M2050.91,99.114c0,0,168.179,23.275,257.831,119.041c111.736,119.39,83.501,365.093-107.792,430.905
					c0,0,102.916-100.464,90.135-236.896c-11.14-118.447-85.867-284.372-413.008-292.051L2050.91,99.114z"/>
				<path fill="#9BCB3F" d="M2102.99,85.253c0,0,327.631-68.345,480.375,173.756c116.141,184.033,125.871,599.918-255.562,666.959
					c0,0,216.597-257.476,150.729-428.437c0,0-6.281,159.995-176.928,189.718c0,0,214.584-120.706,95.354-448.527
					c0,0,301.164,255.676,40.652,600.333c0,0,206.146-111.401,132.258-414.936C2495.98,120.572,2102.99,85.253,2102.99,85.253z"/>
				<path fill="#5F6060" d="M749.794,406.007c0,0-59.126,48.366-28.655,105.722c14.957,28.158,117.688-6.732,112.903-73.478
					c-3.585-50.176-68.097-37.622-68.097-37.622s84.229,25.085,39.446,66.292c-44.816,41.24-60.904,34.422-68.122,17.907
					C724.727,456.166,749.794,406.007,749.794,406.007z"/>
			</g>
		</g>
	</g>
</g>
</svg>
